{"cells":[{"cell_type":"markdown","source":["## Setup Colab"],"metadata":{"id":"DG5NPX-pVAQB"}},{"cell_type":"code","source":["from google.colab import drive \n","drive.mount('/content/gdrive')"],"metadata":{"colab":{"base_uri":"https://localhost:8080/"},"executionInfo":{"status":"ok","timestamp":1674655866216,"user_tz":180,"elapsed":20656,"user":{"displayName":"BENJAMÍN NICOLÁS ALVIAL","userId":"15655169187878286848"}},"outputId":"7eae84e8-26bb-482d-8008-271f73207f01","id":"UrxMk8-uVAQB"},"execution_count":null,"outputs":[{"output_type":"stream","name":"stdout","text":["Mounted at /content/gdrive\n"]}]},{"cell_type":"code","source":["wdir = '/content/gdrive/Othercomputers/My MacBook Air/cell-jamming/experiment_b'"],"metadata":{"id":"zJSn3_UXVAQC"},"execution_count":null,"outputs":[]},{"cell_type":"code","execution_count":null,"metadata":{"id":"DaJwgTXcVAQC"},"outputs":[],"source":["import matplotlib.pyplot as plt\n","import numpy as np\n","import os\n","import pandas as pd\n","np.set_printoptions(linewidth=np.inf)"]},{"cell_type":"code","source":["!apt install ffmpeg"],"metadata":{"id":"GCKCsxwXAS0d","colab":{"base_uri":"https://localhost:8080/"},"executionInfo":{"status":"ok","timestamp":1674655870926,"user_tz":180,"elapsed":3890,"user":{"displayName":"BENJAMÍN NICOLÁS ALVIAL","userId":"15655169187878286848"}},"outputId":"c7066d7a-285e-4783-e909-8fd2b4f4c4ee"},"execution_count":null,"outputs":[{"output_type":"stream","name":"stdout","text":["Reading package lists... Done\n","Building dependency tree       \n","Reading state information... Done\n","ffmpeg is already the newest version (7:4.2.7-0ubuntu0.1).\n","0 upgraded, 0 newly installed, 0 to remove and 23 not upgraded.\n"]}]},{"cell_type":"markdown","metadata":{"id":"7RMXlsShXevc"},"source":["## Video: grid velocity plot"]},{"cell_type":"code","source":["video_name = 'grid_velocity'\n","\n","data_folder_name = 'data_extracted'\n","videos_dir = 'videos/' + video_name\n","n_frames = 29"],"metadata":{"id":"4iWmLyXCABQZ"},"execution_count":null,"outputs":[]},{"cell_type":"code","source":["df = pd.read_csv(os.path.join(wdir, data_folder_name, 'grid_data.csv'))"],"metadata":{"id":"qbw3HbjdVMmG"},"execution_count":null,"outputs":[]},{"cell_type":"code","execution_count":null,"metadata":{"id":"ohtMbR349ml_"},"outputs":[],"source":["#plt.rcParams.update({'font.size': 29.3})\n","\n","for i in range(0, n_frames):\n","  number_str = str(i).zfill(3)\n","\n","  img_name =  'frame' + number_str + '.png'\n","\n","  df_filtered = df[df['t'] == i]\n","  df_filtered = df_filtered.reset_index(drop=True)\n","\n","  X = df_filtered['x'].to_numpy()\n","  Y = df_filtered['y'].to_numpy()\n","  VX = df_filtered['vx'].to_numpy()\n","  VY = df_filtered['vy'].to_numpy()\n","\n","  fig, ax = plt.subplots(1, 1, figsize=(8,16))\n","  fig.suptitle('Frame ' + number_str)\n","  ax.quiver(X, Y, VX, VY, edgecolors='k')\n","  plt.gca().invert_yaxis()\n","  fig.savefig(os.path.join(wdir, videos_dir, img_name))\n","  plt.close(fig)"]},{"cell_type":"code","source":["%cd {os.path.join(wdir, videos_dir)}\n","!ffmpeg -r 6 -i frame%03d.png -vcodec mpeg4 -y {video_name}.mp4"],"metadata":{"colab":{"base_uri":"https://localhost:8080/"},"id":"dkvISLqiBgAW","executionInfo":{"status":"ok","timestamp":1674655889782,"user_tz":180,"elapsed":1810,"user":{"displayName":"BENJAMÍN NICOLÁS ALVIAL","userId":"15655169187878286848"}},"outputId":"1bfeef21-e63a-4e30-cfd7-2ee81767a76b"},"execution_count":null,"outputs":[{"output_type":"stream","name":"stdout","text":["/content/gdrive/Othercomputers/My MacBook Air/cell-jamming/experiment_b/videos/grid_velocity\n","ffmpeg version 4.2.7-0ubuntu0.1 Copyright (c) 2000-2022 the FFmpeg developers\n","  built with gcc 9 (Ubuntu 9.4.0-1ubuntu1~20.04.1)\n","  configuration: --prefix=/usr --extra-version=0ubuntu0.1 --toolchain=hardened --libdir=/usr/lib/x86_64-linux-gnu --incdir=/usr/include/x86_64-linux-gnu --arch=amd64 --enable-gpl --disable-stripping --enable-avresample --disable-filter=resample --enable-avisynth --enable-gnutls --enable-ladspa --enable-libaom --enable-libass --enable-libbluray --enable-libbs2b --enable-libcaca --enable-libcdio --enable-libcodec2 --enable-libflite --enable-libfontconfig --enable-libfreetype --enable-libfribidi --enable-libgme --enable-libgsm --enable-libjack --enable-libmp3lame --enable-libmysofa --enable-libopenjpeg --enable-libopenmpt --enable-libopus --enable-libpulse --enable-librsvg --enable-librubberband --enable-libshine --enable-libsnappy --enable-libsoxr --enable-libspeex --enable-libssh --enable-libtheora --enable-libtwolame --enable-libvidstab --enable-libvorbis --enable-libvpx --enable-libwavpack --enable-libwebp --enable-libx265 --enable-libxml2 --enable-libxvid --enable-libzmq --enable-libzvbi --enable-lv2 --enable-omx --enable-openal --enable-opencl --enable-opengl --enable-sdl2 --enable-libdc1394 --enable-libdrm --enable-libiec61883 --enable-nvenc --enable-chromaprint --enable-frei0r --enable-libx264 --enable-shared\n","  libavutil      56. 31.100 / 56. 31.100\n","  libavcodec     58. 54.100 / 58. 54.100\n","  libavformat    58. 29.100 / 58. 29.100\n","  libavdevice    58.  8.100 / 58.  8.100\n","  libavfilter     7. 57.100 /  7. 57.100\n","  libavresample   4.  0.  0 /  4.  0.  0\n","  libswscale      5.  5.100 /  5.  5.100\n","  libswresample   3.  5.100 /  3.  5.100\n","  libpostproc    55.  5.100 / 55.  5.100\n","Input #0, image2, from 'frame%03d.png':\n","  Duration: 00:00:01.16, start: 0.000000, bitrate: N/A\n","    Stream #0:0: Video: png, rgba(pc), 576x1152 [SAR 2834:2834 DAR 1:2], 25 fps, 25 tbr, 25 tbn, 25 tbc\n","Stream mapping:\n","  Stream #0:0 -> #0:0 (png (native) -> mpeg4 (native))\n","Press [q] to stop, [?] for help\n","Output #0, mp4, to 'grid_velocity.mp4':\n","  Metadata:\n","    encoder         : Lavf58.29.100\n","    Stream #0:0: Video: mpeg4 (mp4v / 0x7634706D), yuv420p, 576x1152 [SAR 1:1 DAR 1:2], q=2-31, 200 kb/s, 6 fps, 12288 tbn, 6 tbc\n","    Metadata:\n","      encoder         : Lavc58.54.100 mpeg4\n","    Side data:\n","      cpb: bitrate max/min/avg: 0/0/200000 buffer size: 0 vbv_delay: -1\n","frame=   29 fps=0.0 q=31.0 Lsize=     394kB time=00:00:04.66 bitrate= 692.1kbits/s speed=  13x    \n","video:393kB audio:0kB subtitle:0kB other streams:0kB global headers:0kB muxing overhead: 0.248544%\n"]}]},{"cell_type":"markdown","metadata":{"id":"88FT_UvEyJBa"},"source":["## Video: grid speed plot"]},{"cell_type":"code","source":["video_name = 'grid_speed'\n","\n","data_folder_name = 'data_extracted'\n","videos_dir = 'videos/' + video_name\n","n_frames = 29"],"metadata":{"id":"wuunhcFgyJBb"},"execution_count":null,"outputs":[]},{"cell_type":"code","source":["df = pd.read_csv(os.path.join(wdir, data_folder_name, 'grid_data.csv'))"],"metadata":{"id":"fL-axHnJyJBc"},"execution_count":null,"outputs":[]},{"cell_type":"code","source":["def get_matrix(X,Y,U):\n","\n","  def find_xy_ind(xval, yval, xarray, yarray):    \n","    for index in range(0, len(xarray)):\n","      if abs(xarray[index] - xval) < 0.0001 and abs(yarray[index] - yval) < 0.0001:\n","        return index\n","\n","  X_unique=np.unique(X)\n","  Y_unique=np.unique(Y)\n","\n","  matriz_final = np.empty([X_unique.shape[0], Y_unique.shape[0]])\n","\n","  for i in range(X_unique.shape[0]):\n","    for j in range(Y_unique.shape[0]):\n","        xval = X_unique[i]\n","        yval = Y_unique[j]\n","        index = find_xy_ind(xval, yval, X, Y)\n","        matriz_final[i,j] = U[index]\n","  \n","  matriz_final = matriz_final.transpose()\n","  #matriz_final = np.flip(matriz_final, axis = 0)\n","\n","  return matriz_final"],"metadata":{"id":"EQweV6Xay7XR"},"execution_count":null,"outputs":[]},{"cell_type":"code","source":["X = [-200,-200,-200,-200,-200, -150, -150, -150,-150, -150, -100, -100, -100, -100, -100]\n","Y = [-60, -120, 0, 30, -30, -60, -120, 0, 30, -30, -60, -120, 0, 30, -30]\n","Z = [0.2, 0.1, 0, -0.32, 0.4, -0.2, 0.5, -0.1, 0.3, 0.4, -0.7, 0.7, 0.6, -0.3, 0.9]\n","print(get_matrix(X,Y,Z))"],"metadata":{"colab":{"base_uri":"https://localhost:8080/"},"id":"tIMSYjxLCz-T","executionInfo":{"status":"ok","timestamp":1674655889784,"user_tz":180,"elapsed":9,"user":{"displayName":"BENJAMÍN NICOLÁS ALVIAL","userId":"15655169187878286848"}},"outputId":"acacd409-91c2-4137-9d1f-0f6157447547"},"execution_count":null,"outputs":[{"output_type":"stream","name":"stdout","text":["[[ 0.1   0.5   0.7 ]\n"," [ 0.2  -0.2  -0.7 ]\n"," [ 0.4   0.4   0.9 ]\n"," [ 0.   -0.1   0.6 ]\n"," [-0.32  0.3  -0.3 ]]\n"]}]},{"cell_type":"code","execution_count":null,"metadata":{"id":"s53Y0NPJyJBc"},"outputs":[],"source":["#plt.rcParams.update({'font.size': 22})\n","\n","for i in range(0, n_frames):\n","  number_str = str(i).zfill(3)\n","\n","  img_name =  'frame' + number_str + '.png'\n","\n","  df_filtered = df[df['t'] == i]\n","  df_filtered = df_filtered.reset_index(drop=True)\n","\n","  X = df_filtered['x'].to_numpy()\n","  Y = df_filtered['y'].to_numpy()\n","  U = df_filtered['u'].to_numpy()\n","\n","  A = get_matrix(X,Y,U)\n","\n","  fig, ax = plt.subplots(1, 1, figsize=(6,12))\n","  fig.suptitle('Frame ' + number_str)\n","  x = ax.imshow(A, cmap='hot', interpolation='nearest', vmin = 0, vmax = 60, origin = 'upper')\n","  plt.colorbar(x)\n","  fig.savefig(os.path.join(wdir, videos_dir, img_name))\n","  plt.close(fig)"]},{"cell_type":"code","source":["%cd {os.path.join(wdir, videos_dir)}\n","!ffmpeg -r 6 -i frame%03d.png -vcodec mpeg4 -y {video_name}.mp4"],"metadata":{"colab":{"base_uri":"https://localhost:8080/"},"executionInfo":{"status":"ok","timestamp":1674655903956,"user_tz":180,"elapsed":325,"user":{"displayName":"BENJAMÍN NICOLÁS ALVIAL","userId":"15655169187878286848"}},"outputId":"118a0f4f-edaa-4019-93ad-5ac4af5dbcff","id":"1PfNQNFUyJBc"},"execution_count":null,"outputs":[{"output_type":"stream","name":"stdout","text":["/content/gdrive/Othercomputers/My MacBook Air/cell-jamming/experiment_b/videos/grid_speed\n","ffmpeg version 4.2.7-0ubuntu0.1 Copyright (c) 2000-2022 the FFmpeg developers\n","  built with gcc 9 (Ubuntu 9.4.0-1ubuntu1~20.04.1)\n","  configuration: --prefix=/usr --extra-version=0ubuntu0.1 --toolchain=hardened --libdir=/usr/lib/x86_64-linux-gnu --incdir=/usr/include/x86_64-linux-gnu --arch=amd64 --enable-gpl --disable-stripping --enable-avresample --disable-filter=resample --enable-avisynth --enable-gnutls --enable-ladspa --enable-libaom --enable-libass --enable-libbluray --enable-libbs2b --enable-libcaca --enable-libcdio --enable-libcodec2 --enable-libflite --enable-libfontconfig --enable-libfreetype --enable-libfribidi --enable-libgme --enable-libgsm --enable-libjack --enable-libmp3lame --enable-libmysofa --enable-libopenjpeg --enable-libopenmpt --enable-libopus --enable-libpulse --enable-librsvg --enable-librubberband --enable-libshine --enable-libsnappy --enable-libsoxr --enable-libspeex --enable-libssh --enable-libtheora --enable-libtwolame --enable-libvidstab --enable-libvorbis --enable-libvpx --enable-libwavpack --enable-libwebp --enable-libx265 --enable-libxml2 --enable-libxvid --enable-libzmq --enable-libzvbi --enable-lv2 --enable-omx --enable-openal --enable-opencl --enable-opengl --enable-sdl2 --enable-libdc1394 --enable-libdrm --enable-libiec61883 --enable-nvenc --enable-chromaprint --enable-frei0r --enable-libx264 --enable-shared\n","  libavutil      56. 31.100 / 56. 31.100\n","  libavcodec     58. 54.100 / 58. 54.100\n","  libavformat    58. 29.100 / 58. 29.100\n","  libavdevice    58.  8.100 / 58.  8.100\n","  libavfilter     7. 57.100 /  7. 57.100\n","  libavresample   4.  0.  0 /  4.  0.  0\n","  libswscale      5.  5.100 /  5.  5.100\n","  libswresample   3.  5.100 /  3.  5.100\n","  libpostproc    55.  5.100 / 55.  5.100\n","Input #0, image2, from 'frame%03d.png':\n","  Duration: 00:00:01.16, start: 0.000000, bitrate: N/A\n","    Stream #0:0: Video: png, rgba(pc), 432x864 [SAR 2834:2834 DAR 1:2], 25 fps, 25 tbr, 25 tbn, 25 tbc\n","Stream mapping:\n","  Stream #0:0 -> #0:0 (png (native) -> mpeg4 (native))\n","Press [q] to stop, [?] for help\n","Output #0, mp4, to 'grid_speed.mp4':\n","  Metadata:\n","    encoder         : Lavf58.29.100\n","    Stream #0:0: Video: mpeg4 (mp4v / 0x7634706D), yuv420p, 432x864 [SAR 1:1 DAR 1:2], q=2-31, 200 kb/s, 6 fps, 12288 tbn, 6 tbc\n","    Metadata:\n","      encoder         : Lavc58.54.100 mpeg4\n","    Side data:\n","      cpb: bitrate max/min/avg: 0/0/200000 buffer size: 0 vbv_delay: -1\n","frame=   29 fps=0.0 q=18.6 Lsize=     263kB time=00:00:04.66 bitrate= 461.9kbits/s speed=21.8x    \n","video:262kB audio:0kB subtitle:0kB other streams:0kB global headers:0kB muxing overhead: 0.372919%\n"]}]},{"cell_type":"markdown","metadata":{"id":"qD4wTKYI3oPI"},"source":["## Video: grid packing fraction plot"]},{"cell_type":"code","source":["video_name = 'grid_packing'\n","\n","data_folder_name = 'data_extracted'\n","videos_dir = 'videos/' + video_name\n","n_frames = 29"],"metadata":{"id":"7OmNc5Ox3oPI"},"execution_count":null,"outputs":[]},{"cell_type":"code","source":["df = pd.read_csv(os.path.join(wdir, data_folder_name, 'grid_data.csv'))"],"metadata":{"id":"obSf6Fn73oPJ"},"execution_count":null,"outputs":[]},{"cell_type":"code","source":["def get_matrix(X,Y,U):\n","\n","  def find_xy_ind(xval, yval, xarray, yarray):    \n","    for index in range(0, len(xarray)):\n","      if abs(xarray[index] - xval) < 0.0001 and abs(yarray[index] - yval) < 0.0001:\n","        return index\n","\n","  X_unique=np.unique(X)\n","  Y_unique=np.unique(Y)\n","\n","  matriz_final = np.empty([X_unique.shape[0], Y_unique.shape[0]])\n","\n","  for i in range(X_unique.shape[0]):\n","    for j in range(Y_unique.shape[0]):\n","        xval = X_unique[i]\n","        yval = Y_unique[j]\n","        index = find_xy_ind(xval, yval, X, Y)\n","        matriz_final[i,j] = U[index]\n","  \n","  matriz_final = matriz_final.transpose()\n","  #matriz_final = np.flip(matriz_final, axis = 0)\n","  return matriz_final"],"metadata":{"id":"_Yz1QWxK3oPJ"},"execution_count":null,"outputs":[]},{"cell_type":"code","execution_count":null,"metadata":{"id":"-dds49LJ3oPJ"},"outputs":[],"source":["#plt.rcParams.update({'font.size': 22})\n","\n","for i in range(0, n_frames):\n","  number_str = str(i).zfill(3)\n","\n","  img_name =  'frame' + number_str + '.png'\n","\n","  df_filtered = df[df['t'] == i]\n","  df_filtered = df_filtered.reset_index(drop=True)\n","\n","  X = df_filtered['x'].to_numpy()\n","  Y = df_filtered['y'].to_numpy()\n","  Phi = df_filtered['phi'].to_numpy()\n","\n","  A = get_matrix(X,Y,Phi)\n","\n","  fig, ax = plt.subplots(1, 1, figsize=(6,12))\n","  fig.suptitle('Frame ' + number_str)\n","  x = ax.imshow(A, cmap='viridis', interpolation='nearest', vmin = 0.2, vmax = 0.7, origin = 'upper')\n","  plt.colorbar(x)\n","  fig.savefig(os.path.join(wdir, videos_dir, img_name))\n","  plt.close(fig)"]},{"cell_type":"code","source":["%cd {os.path.join(wdir, videos_dir)}\n","!ffmpeg -r 6 -i frame%03d.png -vcodec mpeg4 -y {video_name}.mp4"],"metadata":{"colab":{"base_uri":"https://localhost:8080/"},"executionInfo":{"status":"ok","timestamp":1674655917918,"user_tz":180,"elapsed":606,"user":{"displayName":"BENJAMÍN NICOLÁS ALVIAL","userId":"15655169187878286848"}},"outputId":"e29a3704-d284-4b66-e60f-9f80d5d04526","id":"DRnBXylU3oPJ"},"execution_count":null,"outputs":[{"output_type":"stream","name":"stdout","text":["/content/gdrive/Othercomputers/My MacBook Air/cell-jamming/experiment_b/videos/grid_packing\n","ffmpeg version 4.2.7-0ubuntu0.1 Copyright (c) 2000-2022 the FFmpeg developers\n","  built with gcc 9 (Ubuntu 9.4.0-1ubuntu1~20.04.1)\n","  configuration: --prefix=/usr --extra-version=0ubuntu0.1 --toolchain=hardened --libdir=/usr/lib/x86_64-linux-gnu --incdir=/usr/include/x86_64-linux-gnu --arch=amd64 --enable-gpl --disable-stripping --enable-avresample --disable-filter=resample --enable-avisynth --enable-gnutls --enable-ladspa --enable-libaom --enable-libass --enable-libbluray --enable-libbs2b --enable-libcaca --enable-libcdio --enable-libcodec2 --enable-libflite --enable-libfontconfig --enable-libfreetype --enable-libfribidi --enable-libgme --enable-libgsm --enable-libjack --enable-libmp3lame --enable-libmysofa --enable-libopenjpeg --enable-libopenmpt --enable-libopus --enable-libpulse --enable-librsvg --enable-librubberband --enable-libshine --enable-libsnappy --enable-libsoxr --enable-libspeex --enable-libssh --enable-libtheora --enable-libtwolame --enable-libvidstab --enable-libvorbis --enable-libvpx --enable-libwavpack --enable-libwebp --enable-libx265 --enable-libxml2 --enable-libxvid --enable-libzmq --enable-libzvbi --enable-lv2 --enable-omx --enable-openal --enable-opencl --enable-opengl --enable-sdl2 --enable-libdc1394 --enable-libdrm --enable-libiec61883 --enable-nvenc --enable-chromaprint --enable-frei0r --enable-libx264 --enable-shared\n","  libavutil      56. 31.100 / 56. 31.100\n","  libavcodec     58. 54.100 / 58. 54.100\n","  libavformat    58. 29.100 / 58. 29.100\n","  libavdevice    58.  8.100 / 58.  8.100\n","  libavfilter     7. 57.100 /  7. 57.100\n","  libavresample   4.  0.  0 /  4.  0.  0\n","  libswscale      5.  5.100 /  5.  5.100\n","  libswresample   3.  5.100 /  3.  5.100\n","  libpostproc    55.  5.100 / 55.  5.100\n","Input #0, image2, from 'frame%03d.png':\n","  Duration: 00:00:01.16, start: 0.000000, bitrate: N/A\n","    Stream #0:0: Video: png, rgba(pc), 432x864 [SAR 2834:2834 DAR 1:2], 25 fps, 25 tbr, 25 tbn, 25 tbc\n","Stream mapping:\n","  Stream #0:0 -> #0:0 (png (native) -> mpeg4 (native))\n","Press [q] to stop, [?] for help\n","Output #0, mp4, to 'grid_packing.mp4':\n","  Metadata:\n","    encoder         : Lavf58.29.100\n","    Stream #0:0: Video: mpeg4 (mp4v / 0x7634706D), yuv420p, 432x864 [SAR 1:1 DAR 1:2], q=2-31, 200 kb/s, 6 fps, 12288 tbn, 6 tbc\n","    Metadata:\n","      encoder         : Lavc58.54.100 mpeg4\n","    Side data:\n","      cpb: bitrate max/min/avg: 0/0/200000 buffer size: 0 vbv_delay: -1\n","frame=   29 fps=0.0 q=5.6 Lsize=     241kB time=00:00:04.66 bitrate= 423.4kbits/s speed=24.8x    \n","video:240kB audio:0kB subtitle:0kB other streams:0kB global headers:0kB muxing overhead: 0.406970%\n"]}]},{"cell_type":"markdown","source":["## Video: packing fraction and number density scatter plot"],"metadata":{"id":"Y7_OM7jli2dd"}},{"cell_type":"code","source":["video_name = 'packing_number_scatter'\n","\n","data_folder_name = 'data_extracted'\n","videos_dir = 'videos/' + video_name\n","n_frames = 29"],"metadata":{"id":"rCWiXTiri8e-"},"execution_count":null,"outputs":[]},{"cell_type":"code","source":["df = pd.read_csv(os.path.join(wdir, data_folder_name, 'grid_data.csv'))"],"metadata":{"id":"vzbI-yyQjxNB"},"execution_count":null,"outputs":[]},{"cell_type":"code","source":["for i in range(0, n_frames):\n","  number_str = str(i).zfill(3)\n","\n","  img_name =  'frame' + number_str + '.png'\n","\n","  df_filtered = df[df['t'] == i]\n","  df_filtered = df_filtered.reset_index(drop=True)\n","\n","  Phi = df_filtered['phi'].to_numpy()\n","  N = df_filtered['N'].to_numpy()\n","\n","  fig, ax = plt.subplots(1, 1, figsize=(6,6))\n","  fig.suptitle('Frame ' + number_str)\n","  ax.scatter(Phi, N, 2, 'green')\n","  ax.set_xlabel('Packing fraction')\n","  ax.set_ylabel('Number density')\n","  ax.set_xlim((0.2,0.75))\n","  ax.set_ylim((5,25))\n","  fig.savefig(os.path.join(wdir, videos_dir, img_name))\n","  plt.close(fig)"],"metadata":{"id":"CUicAXZokEXD"},"execution_count":null,"outputs":[]},{"cell_type":"code","source":["%cd {os.path.join(wdir, videos_dir)}\n","!ffmpeg -r 6 -i frame%03d.png -vcodec mpeg4 -y {video_name}.mp4"],"metadata":{"id":"TeQQGNqmku-S","executionInfo":{"status":"ok","timestamp":1674656000037,"user_tz":180,"elapsed":237,"user":{"displayName":"BENJAMÍN NICOLÁS ALVIAL","userId":"15655169187878286848"}},"outputId":"d1cb87c0-2db8-4733-926e-e070d0e24f45","colab":{"base_uri":"https://localhost:8080/"}},"execution_count":null,"outputs":[{"output_type":"stream","name":"stdout","text":["/content/gdrive/Othercomputers/My MacBook Air/cell-jamming/experiment_b/videos/packing_number_scatter\n","ffmpeg version 4.2.7-0ubuntu0.1 Copyright (c) 2000-2022 the FFmpeg developers\n","  built with gcc 9 (Ubuntu 9.4.0-1ubuntu1~20.04.1)\n","  configuration: --prefix=/usr --extra-version=0ubuntu0.1 --toolchain=hardened --libdir=/usr/lib/x86_64-linux-gnu --incdir=/usr/include/x86_64-linux-gnu --arch=amd64 --enable-gpl --disable-stripping --enable-avresample --disable-filter=resample --enable-avisynth --enable-gnutls --enable-ladspa --enable-libaom --enable-libass --enable-libbluray --enable-libbs2b --enable-libcaca --enable-libcdio --enable-libcodec2 --enable-libflite --enable-libfontconfig --enable-libfreetype --enable-libfribidi --enable-libgme --enable-libgsm --enable-libjack --enable-libmp3lame --enable-libmysofa --enable-libopenjpeg --enable-libopenmpt --enable-libopus --enable-libpulse --enable-librsvg --enable-librubberband --enable-libshine --enable-libsnappy --enable-libsoxr --enable-libspeex --enable-libssh --enable-libtheora --enable-libtwolame --enable-libvidstab --enable-libvorbis --enable-libvpx --enable-libwavpack --enable-libwebp --enable-libx265 --enable-libxml2 --enable-libxvid --enable-libzmq --enable-libzvbi --enable-lv2 --enable-omx --enable-openal --enable-opencl --enable-opengl --enable-sdl2 --enable-libdc1394 --enable-libdrm --enable-libiec61883 --enable-nvenc --enable-chromaprint --enable-frei0r --enable-libx264 --enable-shared\n","  libavutil      56. 31.100 / 56. 31.100\n","  libavcodec     58. 54.100 / 58. 54.100\n","  libavformat    58. 29.100 / 58. 29.100\n","  libavdevice    58.  8.100 / 58.  8.100\n","  libavfilter     7. 57.100 /  7. 57.100\n","  libavresample   4.  0.  0 /  4.  0.  0\n","  libswscale      5.  5.100 /  5.  5.100\n","  libswresample   3.  5.100 /  3.  5.100\n","  libpostproc    55.  5.100 / 55.  5.100\n","Input #0, image2, from 'frame%03d.png':\n","  Duration: 00:00:01.16, start: 0.000000, bitrate: N/A\n","    Stream #0:0: Video: png, rgba(pc), 432x432 [SAR 2834:2834 DAR 1:1], 25 fps, 25 tbr, 25 tbn, 25 tbc\n","Stream mapping:\n","  Stream #0:0 -> #0:0 (png (native) -> mpeg4 (native))\n","Press [q] to stop, [?] for help\n","Output #0, mp4, to 'packing_number_scatter.mp4':\n","  Metadata:\n","    encoder         : Lavf58.29.100\n","    Stream #0:0: Video: mpeg4 (mp4v / 0x7634706D), yuv420p, 432x432 [SAR 1:1 DAR 1:1], q=2-31, 200 kb/s, 6 fps, 12288 tbn, 6 tbc\n","    Metadata:\n","      encoder         : Lavc58.54.100 mpeg4\n","    Side data:\n","      cpb: bitrate max/min/avg: 0/0/200000 buffer size: 0 vbv_delay: -1\n","frame=   29 fps=0.0 q=3.8 Lsize=     210kB time=00:00:04.66 bitrate= 368.3kbits/s speed=46.5x    \n","video:209kB audio:0kB subtitle:0kB other streams:0kB global headers:0kB muxing overhead: 0.468149%\n"]}]},{"cell_type":"markdown","metadata":{"id":"E-9roskvkLtB"},"source":["## Video: packing fraction and speed scatter plot"]},{"cell_type":"code","source":["video_name = 'packing_speed_scatter'\n","\n","data_folder_name = 'data_extracted'\n","videos_dir = 'videos/' + video_name\n","n_frames = 29"],"metadata":{"id":"sY_qNleLkLtC"},"execution_count":null,"outputs":[]},{"cell_type":"code","source":["df = pd.read_csv(os.path.join(wdir, data_folder_name, 'grid_data.csv'))"],"metadata":{"id":"G_vM9w7LkLtC"},"execution_count":null,"outputs":[]},{"cell_type":"code","source":["for i in range(0, n_frames):\n","  number_str = str(i).zfill(3)\n","\n","  img_name =  'frame' + number_str + '.png'\n","\n","  df_filtered = df[df['t'] == i]\n","  df_filtered = df_filtered.reset_index(drop=True)\n","\n","  Phi = df_filtered['phi'].to_numpy()\n","  U = df_filtered['u'].to_numpy()\n","  Phi_inv = 1/Phi\n","\n","  fig, ax = plt.subplots(1, 1, figsize=(6,6))\n","  fig.suptitle('Frame ' + number_str)\n","  ax.scatter(Phi_inv, U, 2, 'green')\n","  ax.set_xlabel('Inverse of packing fraction')\n","  ax.set_ylabel(r'Speed ($\\mu$m/h)')\n","  ax.set_xlim((1.4,5))\n","  ax.set_ylim((4,65))\n","  fig.savefig(os.path.join(wdir, videos_dir, img_name))\n","  plt.close(fig)"],"metadata":{"id":"PCY61csKk4pt"},"execution_count":null,"outputs":[]},{"cell_type":"code","source":["%cd {os.path.join(wdir, videos_dir)}\n","!ffmpeg -r 6 -i frame%03d.png -vcodec mpeg4 -y {video_name}.mp4"],"metadata":{"colab":{"base_uri":"https://localhost:8080/"},"executionInfo":{"status":"ok","timestamp":1674656010187,"user_tz":180,"elapsed":339,"user":{"displayName":"BENJAMÍN NICOLÁS ALVIAL","userId":"15655169187878286848"}},"outputId":"8883394d-8827-4138-8985-17b830be4e58","id":"3YLVUhJkkLtD"},"execution_count":null,"outputs":[{"output_type":"stream","name":"stdout","text":["/content/gdrive/Othercomputers/My MacBook Air/cell-jamming/experiment_b/videos/packing_speed_scatter\n","ffmpeg version 4.2.7-0ubuntu0.1 Copyright (c) 2000-2022 the FFmpeg developers\n","  built with gcc 9 (Ubuntu 9.4.0-1ubuntu1~20.04.1)\n","  configuration: --prefix=/usr --extra-version=0ubuntu0.1 --toolchain=hardened --libdir=/usr/lib/x86_64-linux-gnu --incdir=/usr/include/x86_64-linux-gnu --arch=amd64 --enable-gpl --disable-stripping --enable-avresample --disable-filter=resample --enable-avisynth --enable-gnutls --enable-ladspa --enable-libaom --enable-libass --enable-libbluray --enable-libbs2b --enable-libcaca --enable-libcdio --enable-libcodec2 --enable-libflite --enable-libfontconfig --enable-libfreetype --enable-libfribidi --enable-libgme --enable-libgsm --enable-libjack --enable-libmp3lame --enable-libmysofa --enable-libopenjpeg --enable-libopenmpt --enable-libopus --enable-libpulse --enable-librsvg --enable-librubberband --enable-libshine --enable-libsnappy --enable-libsoxr --enable-libspeex --enable-libssh --enable-libtheora --enable-libtwolame --enable-libvidstab --enable-libvorbis --enable-libvpx --enable-libwavpack --enable-libwebp --enable-libx265 --enable-libxml2 --enable-libxvid --enable-libzmq --enable-libzvbi --enable-lv2 --enable-omx --enable-openal --enable-opencl --enable-opengl --enable-sdl2 --enable-libdc1394 --enable-libdrm --enable-libiec61883 --enable-nvenc --enable-chromaprint --enable-frei0r --enable-libx264 --enable-shared\n","  libavutil      56. 31.100 / 56. 31.100\n","  libavcodec     58. 54.100 / 58. 54.100\n","  libavformat    58. 29.100 / 58. 29.100\n","  libavdevice    58.  8.100 / 58.  8.100\n","  libavfilter     7. 57.100 /  7. 57.100\n","  libavresample   4.  0.  0 /  4.  0.  0\n","  libswscale      5.  5.100 /  5.  5.100\n","  libswresample   3.  5.100 /  3.  5.100\n","  libpostproc    55.  5.100 / 55.  5.100\n","Input #0, image2, from 'frame%03d.png':\n","  Duration: 00:00:01.16, start: 0.000000, bitrate: N/A\n","    Stream #0:0: Video: png, rgba(pc), 432x432 [SAR 2834:2834 DAR 1:1], 25 fps, 25 tbr, 25 tbn, 25 tbc\n","Stream mapping:\n","  Stream #0:0 -> #0:0 (png (native) -> mpeg4 (native))\n","Press [q] to stop, [?] for help\n","Output #0, mp4, to 'packing_speed_scatter.mp4':\n","  Metadata:\n","    encoder         : Lavf58.29.100\n","    Stream #0:0: Video: mpeg4 (mp4v / 0x7634706D), yuv420p, 432x432 [SAR 1:1 DAR 1:1], q=2-31, 200 kb/s, 6 fps, 12288 tbn, 6 tbc\n","    Metadata:\n","      encoder         : Lavc58.54.100 mpeg4\n","    Side data:\n","      cpb: bitrate max/min/avg: 0/0/200000 buffer size: 0 vbv_delay: -1\n","frame=   29 fps=0.0 q=5.5 Lsize=     218kB time=00:00:04.66 bitrate= 383.2kbits/s speed=49.9x    \n","video:217kB audio:0kB subtitle:0kB other streams:0kB global headers:0kB muxing overhead: 0.449774%\n"]}]}],"metadata":{"colab":{"collapsed_sections":["DG5NPX-pVAQB","7RMXlsShXevc","88FT_UvEyJBa","qD4wTKYI3oPI","Y7_OM7jli2dd","E-9roskvkLtB"],"provenance":[]},"kernelspec":{"display_name":"Python 3","language":"python","name":"python3"},"language_info":{"codemirror_mode":{"name":"ipython","version":3},"file_extension":".py","mimetype":"text/x-python","name":"python","nbconvert_exporter":"python","pygments_lexer":"ipython3","version":"3.8.3"}},"nbformat":4,"nbformat_minor":0}